<svg  viewBox="0 0 27 27" fill="none" xmlns="http://www.w3.org/2000/svg">
<path d="M21.9375 4.21875H5.0625C4.59651 4.21875 4.21875 4.59651 4.21875 5.0625V21.9375C4.21875 22.4035 4.59651 22.7812 5.0625 22.7812H21.9375C22.4035 22.7812 22.7812 22.4035 22.7812 21.9375V5.0625C22.7812 4.59651 22.4035 4.21875 21.9375 4.21875Z" stroke="white" stroke-width="2" stroke-linecap="round" stroke-linejoin="round"/>
<path d="M18.5625 2.53125V5.90625" stroke="white" stroke-width="2" stroke-linecap="round" stroke-linejoin="round"/>
<path d="M8.4375 2.53125V5.90625" stroke="white" stroke-width="2" stroke-linecap="round" stroke-linejoin="round"/>
<path d="M4.21875 9.28125H22.7812" stroke="white" stroke-width="2" stroke-linecap="round" stroke-linejoin="round"/>
<path d="M9.70312 13.5H12.6563L10.9688 15.6094C11.2465 15.6089 11.52 15.677 11.7651 15.8076C12.0102 15.9381 12.2193 16.1272 12.3738 16.358C12.5283 16.5887 12.6235 16.8541 12.6509 17.1304C12.6783 17.4068 12.6371 17.6857 12.5308 17.9423C12.4246 18.1989 12.2567 18.4253 12.042 18.6014C11.8273 18.7776 11.5725 18.8981 11.3001 18.9521C11.0277 19.0062 10.7461 18.9921 10.4804 18.9113C10.2147 18.8305 9.97309 18.6853 9.77695 18.4887" stroke="white" stroke-width="2" stroke-linecap="round" stroke-linejoin="round"/>
<path d="M15.1875 14.7656L16.875 13.5V18.9844" stroke="white" stroke-width="2" stroke-linecap="round" stroke-linejoin="round"/>
</svg>
