<svg width="23" height="23" viewBox="0 0 23 23" fill="none" xmlns="http://www.w3.org/2000/svg">
<path d="M18.5986 2.86132H16.4526V2.14599C16.4526 1.95627 16.3773 1.77432 16.2431 1.64017C16.109 1.50602 15.927 1.43066 15.7373 1.43066C15.5476 1.43066 15.3656 1.50602 15.2315 1.64017C15.0973 1.77432 15.022 1.95627 15.022 2.14599V2.86132H7.86865V2.14599C7.86865 1.95627 7.79329 1.77432 7.65914 1.64017C7.52499 1.50602 7.34304 1.43066 7.15332 1.43066C6.9636 1.43066 6.78166 1.50602 6.6475 1.64017C6.51335 1.77432 6.43799 1.95627 6.43799 2.14599V2.86132H4.29199C3.91256 2.86132 3.54866 3.01205 3.28036 3.28035C3.01206 3.54865 2.86133 3.91255 2.86133 4.29198V18.5986C2.86133 18.9781 3.01206 19.342 3.28036 19.6103C3.54866 19.8786 3.91256 20.0293 4.29199 20.0293H18.5986C18.9781 20.0293 19.342 19.8786 19.6103 19.6103C19.8786 19.342 20.0293 18.9781 20.0293 18.5986V4.29198C20.0293 3.91255 19.8786 3.54865 19.6103 3.28035C19.342 3.01205 18.9781 2.86132 18.5986 2.86132V2.86132ZM15.1561 11.9639L10.9803 15.8982C10.9154 15.9619 10.8385 16.012 10.7541 16.0458C10.6697 16.0796 10.5795 16.0963 10.4886 16.095C10.3053 16.0957 10.129 16.0251 9.99677 15.8982L7.73453 13.7523C7.66186 13.6889 7.60276 13.6114 7.56079 13.5246C7.51881 13.4378 7.49482 13.3434 7.49027 13.247C7.48571 13.1507 7.50068 13.0545 7.53427 12.9641C7.56786 12.8737 7.61938 12.791 7.68574 12.721C7.75209 12.651 7.83191 12.5952 7.9204 12.5569C8.00889 12.5185 8.10421 12.4985 8.20065 12.4979C8.29708 12.4973 8.39263 12.5163 8.48156 12.5536C8.57048 12.5909 8.65094 12.6458 8.71811 12.715L10.4886 14.396L14.1725 10.9267C14.2401 10.8611 14.3201 10.8096 14.4078 10.7754C14.4955 10.7412 14.5892 10.7248 14.6834 10.7273C14.7775 10.7298 14.8702 10.7511 14.956 10.79C15.0418 10.8288 15.1189 10.8844 15.1829 10.9535C15.3132 11.0911 15.3835 11.2748 15.3785 11.4643C15.3735 11.6537 15.2935 11.8334 15.1561 11.9639V11.9639ZM18.5986 7.15331H4.29199V4.29198H6.43799V5.00732C6.43799 5.19703 6.51335 5.37898 6.6475 5.51313C6.78166 5.64728 6.9636 5.72265 7.15332 5.72265C7.34304 5.72265 7.52499 5.64728 7.65914 5.51313C7.79329 5.37898 7.86865 5.19703 7.86865 5.00732V4.29198H15.022V5.00732C15.022 5.19703 15.0973 5.37898 15.2315 5.51313C15.3656 5.64728 15.5476 5.72265 15.7373 5.72265C15.927 5.72265 16.109 5.64728 16.2431 5.51313C16.3773 5.37898 16.4526 5.19703 16.4526 5.00732V4.29198H18.5986V7.15331Z" fill="#242A31"/>
</svg>
