<svg width="23" height="23" viewBox="0 0 23 23" fill="none" xmlns="http://www.w3.org/2000/svg">
<path d="M11.4454 2.14598C9.60621 2.14598 7.80828 2.69138 6.27902 3.7132C4.74975 4.73502 3.55783 6.18737 2.85399 7.8866C2.15015 9.58583 1.96599 11.4556 2.32481 13.2595C2.68362 15.0634 3.5693 16.7204 4.86983 18.0209C6.17036 19.3214 7.82734 20.2071 9.63123 20.5659C11.4351 20.9247 13.3049 20.7406 15.0041 20.0367C16.7034 19.3329 18.1557 18.141 19.1775 16.6117C20.1994 15.0825 20.7448 13.2845 20.7448 11.4453C20.74 8.98042 19.7588 6.61785 18.0158 4.87491C16.2729 3.13197 13.9103 2.15071 11.4454 2.14598V2.14598ZM16.4528 12.1606H11.4454C11.2557 12.1606 11.0738 12.0853 10.9396 11.9511C10.8055 11.817 10.7301 11.635 10.7301 11.4453V6.43797C10.7301 6.24826 10.8055 6.06631 10.9396 5.93216C11.0738 5.79801 11.2557 5.72264 11.4454 5.72264C11.6352 5.72264 11.8171 5.79801 11.9513 5.93216C12.0854 6.06631 12.1608 6.24826 12.1608 6.43797V10.73H16.4528C16.6425 10.73 16.8244 10.8053 16.9586 10.9395C17.0927 11.0736 17.1681 11.2556 17.1681 11.4453C17.1681 11.635 17.0927 11.817 16.9586 11.9511C16.8244 12.0853 16.6425 12.1606 16.4528 12.1606Z" fill="#242A31"/>
</svg>
