<svg width="19" height="19" viewBox="0 0 19 19" fill="none" xmlns="http://www.w3.org/2000/svg">
<path d="M9.44544 0.145981C7.60621 0.145981 5.80828 0.691376 4.27902 1.7132C2.74975 2.73502 1.55783 4.18737 0.853991 5.8866C0.150147 7.58583 -0.0340101 9.45561 0.324806 11.2595C0.683622 13.0634 1.5693 14.7204 2.86983 16.0209C4.17036 17.3214 5.82734 18.2071 7.63123 18.5659C9.43512 18.9247 11.3049 18.7406 13.0041 18.0367C14.7034 17.3329 16.1557 16.141 17.1775 14.6117C18.1994 13.0825 18.7448 11.2845 18.7448 9.4453C18.74 6.98042 17.7588 4.61785 16.0158 2.87491C14.2729 1.13197 11.9103 0.150707 9.44544 0.145981ZM14.4528 10.1606H9.44544C9.25572 10.1606 9.07377 10.0853 8.93962 9.95111C8.80547 9.81696 8.73011 9.63502 8.73011 9.4453V4.43797C8.73011 4.24826 8.80547 4.06631 8.93962 3.93216C9.07377 3.79801 9.25572 3.72264 9.44544 3.72264C9.63516 3.72264 9.8171 3.79801 9.95126 3.93216C10.0854 4.06631 10.1608 4.24826 10.1608 4.43797V8.72997H14.4528C14.6425 8.72997 14.8244 8.80533 14.9586 8.93948C15.0927 9.07363 15.1681 9.25558 15.1681 9.4453C15.1681 9.63502 15.0927 9.81696 14.9586 9.95111C14.8244 10.0853 14.6425 10.1606 14.4528 10.1606Z" fill="#242A31"/>
</svg>

