<svg width="13" height="13" viewBox="0 0 13 13" fill="none" xmlns="http://www.w3.org/2000/svg">
<path d="M6.5 0.40625C5.29477 0.40625 4.11661 0.763642 3.1145 1.43323C2.11238 2.10282 1.33133 3.05454 0.870112 4.16802C0.40889 5.28151 0.288214 6.50676 0.523342 7.68883C0.758471 8.8709 1.33884 9.95671 2.19107 10.8089C3.0433 11.6612 4.1291 12.2415 5.31117 12.4767C6.49324 12.7118 7.71849 12.5911 8.83198 12.1299C9.94547 11.6687 10.8972 10.8876 11.5668 9.88551C12.2364 8.88339 12.5938 7.70523 12.5938 6.5C12.5907 4.88479 11.9476 3.33662 10.8055 2.19449C9.66338 1.05236 8.11521 0.409347 6.5 0.40625V0.40625ZM8.70899 8.04102C8.79701 8.12989 8.84639 8.24992 8.84639 8.375C8.84639 8.50009 8.79701 8.62011 8.70899 8.70898C8.61939 8.79562 8.49964 8.84405 8.375 8.84405C8.25037 8.84405 8.13062 8.79562 8.04102 8.70898L6.5 7.16211L4.95899 8.70898C4.86939 8.79562 4.74963 8.84405 4.625 8.84405C4.50037 8.84405 4.38062 8.79562 4.29102 8.70898C4.203 8.62011 4.15362 8.50009 4.15362 8.375C4.15362 8.24992 4.203 8.12989 4.29102 8.04102L5.83789 6.5L4.29102 4.95898C4.21627 4.86791 4.17807 4.75229 4.18385 4.6346C4.18963 4.51692 4.23898 4.4056 4.32229 4.32229C4.4056 4.23897 4.51693 4.18963 4.63461 4.18385C4.75229 4.17807 4.86791 4.21627 4.95899 4.29102L6.5 5.83789L8.04102 4.29102C8.1321 4.21627 8.24772 4.17807 8.3654 4.18385C8.48308 4.18963 8.5944 4.23897 8.67772 4.32229C8.76103 4.4056 8.81038 4.51692 8.81616 4.6346C8.82194 4.75229 8.78374 4.86791 8.70899 4.95898L7.16211 6.5L8.70899 8.04102Z" fill="white"/>
</svg>
