<svg width="192" height="156" viewBox="0 0 192 156" fill="none" xmlns="http://www.w3.org/2000/svg">
<path d="M191.574 137.739H0.426147V137.835H191.574V137.739Z" fill="#EBEBEB"/>
<path d="M172.421 143.89H159.759V143.986H172.421V143.89Z" fill="#EBEBEB"/>
<path d="M104.877 142.694H99.9491V142.789H104.877V142.694Z" fill="#EBEBEB"/>
<path d="M134.103 143.099H123.728V143.194H134.103V143.099Z" fill="#EBEBEB"/>
<path d="M159.377 140.342H137.926V140.438H159.377V140.342Z" fill="#EBEBEB"/>
<path d="M30.6236 144.766H20.4813V144.861H30.6236V144.766Z" fill="#EBEBEB"/>
<path d="M42.8188 144.766H34.026V144.861H42.8188V144.766Z" fill="#EBEBEB"/>
<path d="M73.7542 142.648H50.5068V142.743H73.7542V142.648Z" fill="#EBEBEB"/>
<path d="M91.0302 120.689H17.2128C16.6345 120.688 16.0802 120.457 15.6717 120.048C15.2632 119.639 15.0337 119.084 15.0337 118.506V14.7393C15.0387 14.1644 15.2704 13.6146 15.6784 13.2095C16.0864 12.8043 16.6378 12.5765 17.2128 12.5755H91.0302C91.6091 12.5755 92.1644 12.8055 92.5737 13.2149C92.9831 13.6243 93.2131 14.1795 93.2131 14.7584V118.506C93.2131 119.085 92.9831 119.64 92.5737 120.049C92.1644 120.459 91.6091 120.689 91.0302 120.689ZM17.2128 12.652C16.6598 12.653 16.1299 12.8734 15.7393 13.2647C15.3487 13.656 15.1293 14.1864 15.1293 14.7393V118.506C15.1293 119.059 15.3487 119.589 15.7393 119.98C16.1299 120.372 16.6598 120.592 17.2128 120.593H91.0302C91.5835 120.592 92.1138 120.372 92.505 119.981C92.8963 119.589 93.1165 119.059 93.1175 118.506V14.7393C93.1165 14.186 92.8963 13.6557 92.505 13.2645C92.1138 12.8732 91.5835 12.653 91.0302 12.652H17.2128Z" fill="#EBEBEB"/>
<path d="M173.724 120.689H99.9032C99.3246 120.688 98.77 120.457 98.3608 120.048C97.9517 119.639 97.7213 119.084 97.7203 118.506V14.7393C97.7264 14.164 97.9589 13.6143 98.3675 13.2092C98.7761 12.8042 99.3279 12.5765 99.9032 12.5755H173.724C174.299 12.5775 174.849 12.8058 175.256 13.2108C175.664 13.6158 175.895 14.165 175.9 14.7393V118.506C175.9 119.083 175.671 119.637 175.263 120.047C174.855 120.456 174.302 120.687 173.724 120.689ZM99.9032 12.652C99.35 12.653 98.8196 12.8732 98.4284 13.2645C98.0372 13.6557 97.8169 14.186 97.8159 14.7393V118.506C97.8169 119.059 98.0372 119.589 98.4284 119.981C98.8196 120.372 99.35 120.592 99.9032 120.593H173.724C174.278 120.592 174.808 120.372 175.199 119.981C175.591 119.589 175.811 119.059 175.812 118.506V14.7393C175.811 14.186 175.591 13.6557 175.199 13.2645C174.808 12.8732 174.278 12.653 173.724 12.652H99.9032Z" fill="#EBEBEB"/>
<path d="M178.981 65.7796C180.179 61.6382 180.045 57.225 178.599 53.1638C180.135 50.9646 181.154 48.4461 181.578 45.7972C182.002 43.1483 181.822 40.4377 181.049 37.8686C180.277 35.2995 178.933 32.9386 177.118 30.9629C175.303 28.9872 173.065 27.4479 170.571 26.4605C169.841 21.2024 167.76 16.2236 164.53 12.0108C161.3 7.79809 157.032 4.49566 152.143 2.42643C147.255 0.357199 141.913 -0.407995 136.64 0.205664C131.367 0.819323 126.344 2.79083 122.061 5.92741C119.908 3.66689 117.13 2.10058 114.082 1.42918C111.033 0.757782 107.854 1.01188 104.951 2.15891C102.047 3.30594 99.5529 5.29366 97.7867 7.86737C96.0204 10.4411 95.0628 13.4835 95.0366 16.6049C91.0029 17.4141 87.2497 19.2607 84.1473 21.9627C81.0448 24.6647 78.7003 28.1287 77.3449 32.0131C75.9895 35.8976 75.67 40.0682 76.418 44.1138C77.1661 48.1593 78.9557 51.94 81.6104 55.083C80.3119 57.4244 79.558 60.0285 79.4047 62.7015C79.2514 65.3745 79.7028 68.0477 80.7251 70.5222C81.7475 72.9968 83.3146 75.209 85.3098 76.9943C87.3051 78.7797 89.6772 80.0922 92.2497 80.8344C95.2529 81.7045 98.4327 81.7651 101.467 81.0102C105.579 86.6771 111.698 90.5622 118.575 91.8735C125.453 93.1848 132.572 91.8236 138.481 88.0674C141.359 94.7537 143.722 104.785 138.634 114.622C157.118 112.81 170.464 95.0825 167.742 78.8388C170.445 77.6 172.849 75.7918 174.789 73.5378C176.729 71.2839 178.159 68.6374 178.981 65.7796Z" fill="#EBEBEB"/>
<path d="M143.527 110.952C143.477 110.952 143.427 110.942 143.38 110.923C143.334 110.904 143.291 110.876 143.255 110.841C143.206 110.792 143.171 110.73 143.155 110.663C143.138 110.595 143.14 110.525 143.16 110.458C145.763 101.39 143.389 92.6969 140.943 87.0007L139.7 84.1144L137.047 85.8003C131.716 89.1905 125.292 90.4199 119.086 89.2379C112.88 88.0559 107.358 84.5514 103.646 79.4389L102.583 77.9748L100.832 78.4106C97.9715 79.1226 94.965 78.983 92.1826 78.0089C89.4002 77.0349 86.9631 75.2689 85.171 72.9281C83.379 70.5873 82.3101 67.7738 82.0959 64.8336C81.8817 61.8934 82.5315 58.9547 83.9653 56.3789L84.8561 54.7656L83.6671 53.3588C81.3116 50.5719 79.7233 47.2192 79.0586 43.6313C78.394 40.0434 78.6762 36.3442 79.8772 32.8986C81.0782 29.453 83.1567 26.3799 85.9075 23.9826C88.6584 21.5852 91.9867 19.9463 95.5642 19.2274L97.6897 18.7993L97.7127 16.6355C97.7323 14.0457 98.5251 11.5208 99.9894 9.38465C101.454 7.2485 103.523 5.59851 105.931 4.64629C108.34 3.69408 110.978 3.48307 113.507 4.04032C116.036 4.59757 118.341 5.89767 120.127 7.77388L121.748 9.47127L123.659 8.08736C127.567 5.22061 132.153 3.41765 136.967 2.85492C141.781 2.29219 146.659 2.98897 151.123 4.87708C155.587 6.76519 159.484 9.77993 162.434 13.6263C165.383 17.4726 167.283 22.0188 167.948 26.8198L168.166 28.349L169.615 28.9225C171.733 29.7612 173.635 31.0688 175.176 32.7473C176.717 34.4258 177.858 36.4316 178.513 38.6141C179.168 40.7965 179.32 43.099 178.959 45.3488C178.597 47.5985 177.73 49.7371 176.423 51.604L175.636 52.7318L176.098 54.0316C177.605 58.2719 177.467 62.9226 175.714 67.0667C173.96 71.2107 170.717 74.5474 166.625 76.4188L164.763 77.2752L165.104 79.2937C166.251 86.2247 164.175 93.7941 159.369 100.064C155.401 105.262 149.891 109.072 143.626 110.948C143.594 110.954 143.56 110.955 143.527 110.952ZM139.876 83.1778C139.913 83.1724 139.95 83.1724 139.987 83.1778C140.039 83.1943 140.088 83.2219 140.129 83.2589C140.17 83.2959 140.202 83.3412 140.224 83.3919L141.642 86.6873C144.081 92.3567 146.44 100.943 144.077 109.981C149.918 108.081 155.043 104.449 158.769 99.5668C163.441 93.4501 165.475 86.11 164.351 79.3893L163.968 77.0955C163.954 77.0127 163.967 76.9274 164.005 76.8527C164.044 76.7781 164.106 76.7183 164.182 76.6826L166.308 75.7077C170.219 73.9151 173.317 70.7238 174.993 66.7618C176.669 62.7999 176.801 58.3541 175.364 54.2992L174.837 52.8159C174.817 52.7582 174.811 52.6964 174.819 52.6359C174.828 52.5754 174.851 52.5178 174.887 52.468L175.785 51.1759C177.026 49.404 177.849 47.374 178.193 45.2384C178.537 43.1028 178.393 40.917 177.771 38.8451C177.15 36.7732 176.067 34.8691 174.604 33.2757C173.141 31.6822 171.336 30.441 169.324 29.645L167.665 28.9874C167.602 28.9625 167.548 28.9214 167.506 28.8683C167.464 28.8153 167.437 28.7522 167.428 28.6854L167.18 26.923C166.535 22.2511 164.688 17.8267 161.819 14.0834C158.951 10.3401 155.159 7.40622 150.815 5.5693C146.471 3.73238 141.725 3.05541 137.041 3.60472C132.357 4.15404 127.896 5.91079 124.095 8.70285L121.927 10.2817C121.853 10.3364 121.761 10.3623 121.669 10.3546C121.577 10.3468 121.491 10.306 121.426 10.2397L119.572 8.30145C118.427 7.10712 117.053 6.15629 115.531 5.50594C114.01 4.8556 112.373 4.51914 110.718 4.51672C107.493 4.51659 104.398 5.79024 102.107 8.06053C99.8159 10.3308 98.5141 13.414 98.4849 16.6393L98.4581 19.1166C98.4599 19.206 98.4303 19.2933 98.3744 19.3631C98.3186 19.433 98.24 19.481 98.1523 19.4989L95.7247 19.9882C92.2791 20.6811 89.0734 22.2599 86.4237 24.569C83.774 26.878 81.7717 29.8376 80.6141 33.1561C79.4565 36.4747 79.1835 40.0375 79.8221 43.4937C80.4607 46.9498 81.9888 50.1799 84.2559 52.8656L85.613 54.4751C85.663 54.5343 85.6938 54.6074 85.7013 54.6845C85.7088 54.7617 85.6927 54.8393 85.6551 54.9071L84.6382 56.7497C84.1129 57.6955 83.6948 58.6969 83.3919 59.7355C82.6925 62.1591 82.6435 64.7242 83.2496 67.1729C83.8558 69.6215 85.0959 71.8675 86.8452 73.685C88.5945 75.5024 90.7914 76.8275 93.2151 77.5268C95.6388 78.2261 98.2039 78.2751 100.653 77.6689L102.656 77.1719C102.73 77.1535 102.807 77.1574 102.879 77.1833C102.95 77.2092 103.012 77.2558 103.057 77.3172L104.269 78.9878C107.863 83.9513 113.216 87.3546 119.236 88.5022C125.255 89.6498 131.486 88.455 136.653 85.1619L139.685 83.2504C139.741 83.2093 139.807 83.1842 139.876 83.1778Z" fill="white"/>
<path d="M116.717 47.437L106.471 45.8352L106.628 44.8107C106.807 43.3644 107.231 41.9592 107.882 40.6551C108.453 39.6229 109.21 38.7052 110.114 37.9485C111.034 37.1839 113.038 35.8764 116.124 34.0261C117.764 33.0627 118.663 32.0917 118.8 31.1016C118.891 30.681 118.892 30.246 118.803 29.8251C118.714 29.4041 118.537 29.0067 118.284 28.6587C117.787 28.0203 116.942 27.6074 115.757 27.4239C115.173 27.313 114.573 27.3237 113.993 27.4553C113.414 27.5868 112.868 27.8364 112.389 28.1885C111.421 28.9046 110.656 30.2962 110.095 32.3631L99.8345 29.4386C100.793 25.6487 102.674 22.7701 105.477 20.8025C108.281 18.835 112.198 18.2437 117.229 19.0287C121.149 19.6378 124.185 20.9478 126.339 22.9587C129.265 25.6806 130.441 28.8842 129.868 32.5696C129.611 34.1228 128.935 35.5767 127.914 36.7748C126.849 38.0644 124.852 39.5299 121.923 41.1712C119.885 42.3308 118.559 43.3082 117.948 44.1034C117.264 45.0935 116.84 46.24 116.717 47.437ZM105.695 48.5113L116.671 50.2201L115.165 59.8999L104.189 58.191L105.695 48.5113Z" fill="white"/>
<path d="M142.866 62.4345L137.177 57.8469L137.64 57.2773C138.262 56.4592 139.018 55.7522 139.876 55.1862C140.591 54.7603 141.377 54.4687 142.197 54.326C143.876 54.1303 145.567 54.0422 147.258 54.0622C148.599 54.0622 149.491 53.7857 149.934 53.2326C150.14 53.0092 150.296 52.744 150.391 52.4552C150.486 52.1663 150.518 51.8604 150.485 51.5582C150.342 50.8863 149.947 50.295 149.38 49.9067C149.063 49.6325 148.692 49.4272 148.291 49.3035C147.89 49.1798 147.468 49.1404 147.052 49.188C146.206 49.2797 145.246 49.857 144.173 50.9198L138.947 45.495C140.874 43.5223 143.04 42.4328 145.446 42.2264C147.852 42.0199 150.454 43.0483 153.253 45.3115C155.429 47.0726 156.817 48.9497 157.416 50.9427C158.236 53.6417 157.82 56.0132 156.166 58.0572C155.462 58.9183 154.537 59.5712 153.49 59.9457C152.381 60.351 150.643 60.537 148.275 60.5039C146.62 60.5039 145.465 60.6109 144.808 60.8862C144.043 61.2352 143.376 61.7669 142.866 62.4345ZM135.759 59.1812L141.853 64.1166L137.498 69.4917L131.404 64.5677L135.759 59.1812Z" fill="white"/>
<path d="M144.456 29.32L141.994 25.9558L142.33 25.7073C142.791 25.3496 143.308 25.0705 143.86 24.8816C144.315 24.7504 144.791 24.705 145.263 24.7478C146.215 24.8814 147.158 25.0781 148.084 25.3365C148.826 25.5277 149.357 25.5047 149.682 25.2677C149.827 25.1739 149.951 25.0505 150.045 24.9056C150.139 24.7607 150.202 24.5974 150.229 24.4267C150.244 24.034 150.107 23.6507 149.846 23.3562C149.711 23.16 149.536 22.9936 149.334 22.8673C149.131 22.7411 148.905 22.6577 148.669 22.6222C148.191 22.5534 147.579 22.7293 146.834 23.1574L144.743 19.4148C145.943 18.6383 147.387 18.3333 148.799 18.5584C150.155 18.7955 151.438 19.7384 152.649 21.3874C153.589 22.677 154.081 23.9118 154.124 25.0919C154.185 25.811 154.058 26.5337 153.756 27.1891C153.454 27.8445 152.987 28.4102 152.4 28.8307C151.892 29.1998 151.294 29.4244 150.668 29.4806C149.666 29.5004 148.668 29.3491 147.717 29.0333C147.085 28.818 146.42 28.717 145.752 28.7351C145.278 28.8198 144.833 29.0207 144.456 29.32ZM141.015 26.4987L143.653 30.0999L140.476 32.4243L137.839 28.8269L141.015 26.4987Z" fill="white"/>
<path d="M49.49 77.0191C46.2585 77.0134 43.0885 76.135 40.3149 74.4768C36.4346 72.183 33.6935 68.5818 32.7607 64.6174C30.0554 64.4289 27.5125 63.2574 25.6112 61.3237C23.7099 59.39 22.5815 56.8277 22.4387 54.1196C21.6243 53.5545 20.9044 52.8642 20.3055 52.0743C18.8509 50.2208 18.1323 47.8952 18.2875 45.5442C18.4427 43.1932 19.4609 40.9824 21.1466 39.3362C20.5069 36.6179 20.5743 33.7811 21.3423 31.0962C22.1102 28.4113 23.5532 25.968 25.5336 23.9991C27.5139 22.0302 29.9657 20.6015 32.655 19.8492C35.3443 19.0969 38.1814 19.046 40.896 19.7015C41.4882 18.3488 42.4222 17.1735 43.6062 16.2911C44.7903 15.4087 46.1835 14.8496 47.6491 14.6687C49.1146 14.4878 50.602 14.6914 51.965 15.2594C53.3281 15.8275 54.5198 16.7404 55.4232 17.9085C55.8424 18.4507 56.1954 19.0411 56.4745 19.6671C58.6119 19.3159 60.8038 19.5182 62.8408 20.2547C64.8778 20.9913 66.6922 22.2376 68.1107 23.8746C69.5292 25.5116 70.5046 27.4848 70.9438 29.606C71.3829 31.7271 71.2713 33.9254 70.6194 35.9911C72.019 37.1833 73.0475 38.7516 73.5832 40.5103C74.119 42.269 74.1394 44.1444 73.6422 45.9144C73.145 47.6844 72.151 49.2748 70.7778 50.4973C69.4046 51.7197 67.7099 52.5231 65.8943 52.8121C65.0752 55.911 63.2555 58.6526 60.718 60.6109C59.1208 61.8509 57.2852 62.7482 55.3257 63.2467C53.3662 63.7453 51.3249 63.8345 49.3294 63.5087C49.2912 67.2208 50.1513 72.2556 54.2992 75.8569C54.3393 75.8926 54.3692 75.9383 54.386 75.9893C54.4027 76.0403 54.4058 76.0949 54.3948 76.1474C54.3834 76.2001 54.3578 76.2486 54.3207 76.2877C54.2836 76.3268 54.2365 76.355 54.1845 76.3691C52.6581 76.8057 51.0776 77.0245 49.49 77.0191ZM37.0233 19.8391C34.6375 19.8464 32.2846 20.3953 30.1418 21.4445C27.9991 22.4936 26.1226 24.0156 24.6537 25.8956C23.1849 27.7756 22.1621 29.9646 21.6625 32.2975C21.163 34.6304 21.1996 37.0463 21.7697 39.363C21.7828 39.4148 21.7816 39.4692 21.7661 39.5204C21.7506 39.5716 21.7215 39.6176 21.6818 39.6535C20.0493 41.1855 19.0494 43.2731 18.8789 45.5053C18.7084 47.7375 19.3796 49.9528 20.7605 51.7149C21.3677 52.4951 22.0987 53.1705 22.9243 53.7143C22.9643 53.7402 22.9976 53.7751 23.0215 53.8163C23.0454 53.8575 23.0593 53.9038 23.0619 53.9513C23.1655 56.5736 24.2465 59.0623 26.0922 60.9278C27.938 62.7934 30.4149 63.9009 33.036 64.0325C33.1016 64.0362 33.1641 64.0614 33.2139 64.1042C33.2636 64.1471 33.2979 64.2052 33.3112 64.2695C34.1561 68.1574 36.8283 71.6899 40.636 73.9607C44.494 76.2874 49.1157 76.9938 53.4926 75.9257C49.3906 72.1027 48.626 66.8806 48.7254 63.1341C48.727 63.0907 48.7378 63.0481 48.7571 63.0092C48.7764 62.9703 48.8038 62.9359 48.8375 62.9085C48.8711 62.881 48.9102 62.861 48.9522 62.8498C48.9942 62.8386 49.038 62.8364 49.0809 62.8435C52.6052 63.5101 56.2509 62.8068 59.2745 60.8773C62.298 58.9479 64.4714 55.9375 65.3514 52.4604C65.3649 52.402 65.3959 52.349 65.4403 52.3087C65.4848 52.2684 65.5404 52.2426 65.5999 52.2348C67.3388 51.9945 68.9698 51.2518 70.2927 50.0979C71.6157 48.944 72.5732 47.4291 73.0476 45.739C73.5221 44.0489 73.493 42.257 72.9639 40.5832C72.4348 38.9094 71.4287 37.4264 70.0689 36.3161C70.0219 36.278 69.9876 36.2265 69.9705 36.1685C69.9534 36.1104 69.9544 36.0486 69.9733 35.9911C70.6384 33.9989 70.7724 31.8676 70.3621 29.8078C69.9519 27.7479 69.0115 25.8307 67.6338 24.2454C66.2561 22.66 64.4888 21.4614 62.5063 20.7678C60.5238 20.0742 58.3947 19.9096 56.3292 20.2902C56.2616 20.3033 56.1914 20.2926 56.1308 20.2598C56.0702 20.2271 56.0228 20.1743 55.9966 20.1106C55.3978 18.6579 54.3799 17.4165 53.0727 16.5447C51.7655 15.6729 50.2283 15.2101 48.6571 15.2154C47.0858 15.2208 45.5518 15.6939 44.2505 16.5746C42.9493 17.4553 41.9398 18.7036 41.3509 20.1603C41.323 20.227 41.2723 20.2816 41.2079 20.3145C41.1435 20.3474 41.0696 20.3564 40.9992 20.3399C39.7002 20.0066 38.3644 19.8383 37.0233 19.8391Z" fill="#E6E6E6"/>
<path d="M38.8812 45.0706L33.6017 46.3131L33.4794 45.7855C33.2795 45.0489 33.2084 44.2832 33.2691 43.5224C33.3416 42.9112 33.527 42.3188 33.8158 41.7753C34.4622 40.7019 35.1773 39.6713 35.9567 38.6901C36.5645 37.8988 36.8092 37.2527 36.6868 36.7443C36.6493 36.5223 36.5647 36.3109 36.4388 36.1243C36.3129 35.9377 36.1485 35.7802 35.9567 35.6624C35.4991 35.4395 34.9729 35.4025 34.4886 35.5591C34.1841 35.6208 33.8954 35.7446 33.6409 35.9229C33.3863 36.1011 33.1713 36.33 33.0092 36.5952C32.6804 37.1342 32.5848 37.9561 32.7186 39.0686L27.1868 39.6573C26.8636 37.8286 27.2256 35.945 28.2037 34.3664C29.1747 32.8601 30.9588 31.8025 33.5559 31.1933C35.5744 30.7167 37.3036 30.7537 38.7436 31.3042C40.6959 32.0458 41.8963 33.3673 42.3448 35.2686C42.5313 36.0742 42.4916 36.9156 42.2301 37.7C41.9753 38.5334 41.2961 39.637 40.1925 41.0107C39.4279 41.9741 38.9781 42.7081 38.843 43.2127C38.7 43.8254 38.7131 44.4643 38.8812 45.0706ZM33.7508 47.7467L39.4088 46.4163L40.5671 51.4015L34.9283 52.7166L33.7508 47.7467Z" fill="#EBEBEB"/>
<path d="M52.3227 33.9038L48.6604 32.7875L48.7712 32.4052C48.9115 31.8851 49.139 31.3926 49.4441 30.9486C49.7053 30.6009 50.0295 30.3052 50.3998 30.077C51.1751 29.6567 51.9771 29.2876 52.8006 28.9722C53.4505 28.7173 53.8328 28.4077 53.9475 28.0432C54.0036 27.8941 54.0272 27.7348 54.0166 27.5759C54.0061 27.417 53.9617 27.2622 53.8863 27.1219C53.6849 26.8242 53.3771 26.6149 53.0262 26.537C52.8183 26.4676 52.5984 26.4417 52.3801 26.4608C52.1617 26.4798 51.9497 26.5435 51.7569 26.6478C51.2605 26.9884 50.8897 27.4827 50.7018 28.0547L47.1006 26.4528C47.5556 25.2222 48.4485 24.2027 49.6084 23.5895C50.7349 23.0109 52.1979 22.9969 53.9972 23.5474C55.2094 23.8524 56.3001 24.5191 57.1244 25.4589C57.5674 25.9517 57.8739 26.5517 58.0134 27.1996C58.1528 27.8474 58.1205 28.5204 57.9195 29.1519C57.7467 29.7098 57.424 30.2097 56.9867 30.5969C56.2586 31.1628 55.4406 31.6021 54.5668 31.8967C53.9854 32.0892 53.4421 32.3816 52.9612 32.7607C52.657 33.083 52.4376 33.4758 52.3227 33.9038ZM48.2398 33.7241L52.1622 34.9169L51.1109 38.3805L47.1847 37.1877L48.2398 33.7241Z" fill="#EBEBEB"/>
<path d="M96 155.003C136.937 155.003 170.123 153.066 170.123 150.676C170.123 148.286 136.937 146.348 96 146.348C55.0628 146.348 21.8767 148.286 21.8767 150.676C21.8767 153.066 55.0628 155.003 96 155.003Z" fill="#F5F5F5"/>
<path d="M60.6798 86.1444L60.3281 85.9953C60.6045 85.3884 60.7912 84.7445 60.8824 84.0839L61.2647 84.1259C61.1689 84.8236 60.9719 85.5036 60.6798 86.1444ZM60.5307 81.771C60.1751 80.9765 59.6219 80.2864 58.9239 79.7665C58.2259 79.2465 57.4063 78.9139 56.5433 78.8005L56.6045 78.4182C57.5301 78.5413 58.4088 78.8993 59.157 79.4581C59.9051 80.0168 60.4978 80.7578 60.8786 81.6104L60.5307 81.771Z" fill="#F7A955"/>
<path d="M58.5351 89.9903L54.7657 91.7107L54.5975 91.3284C54.3397 90.8088 54.1729 90.2489 54.1043 89.673C54.068 89.204 54.1185 88.7322 54.2534 88.2815C54.5797 87.3839 54.9628 86.5079 55.4003 85.6589C55.7367 84.9784 55.8221 84.4572 55.6564 84.0953C55.595 83.9352 55.5001 83.79 55.3782 83.6694C55.2562 83.5487 55.11 83.4555 54.9492 83.3957C54.5738 83.3003 54.1762 83.3509 53.8367 83.5372C53.6185 83.63 53.4216 83.7664 53.2579 83.938C53.0942 84.1095 52.9673 84.3127 52.8848 84.535C52.7191 84.981 52.7701 85.6105 53.0377 86.4235L48.9777 87.6927C48.47 86.3699 48.47 84.9059 48.9777 83.5831C49.4875 82.3087 50.6624 81.2549 52.5025 80.4215C53.9399 79.7639 55.2397 79.5384 56.3981 79.7333C57.1078 79.8191 57.7831 80.0879 58.3575 80.5135C58.9319 80.9392 59.3857 81.5069 59.6743 82.1609C59.9324 82.7358 60.0276 83.3706 59.9496 83.9959C59.7649 84.9728 59.4159 85.9113 58.9174 86.7714C58.5822 87.3414 58.3517 87.9667 58.2369 88.6179C58.2208 89.093 58.3233 89.5647 58.5351 89.9903ZM55.0945 92.7581L59.1238 90.9461L60.741 94.4976L56.7116 96.2982L55.0945 92.7581Z" fill="#F7A955"/>
<path d="M49.2224 98.4888L47.3109 101.088L47.0662 100.886C46.6934 100.627 46.3665 100.308 46.099 99.9415C45.8959 99.6358 45.7519 99.2948 45.6747 98.936C45.5512 98.2015 45.4784 97.4594 45.4568 96.7149C45.4262 96.1223 45.2847 95.7362 45.0362 95.568C44.9318 95.4794 44.8092 95.4147 44.6772 95.3784C44.5451 95.342 44.4067 95.335 44.2716 95.3578C43.9791 95.4343 43.7272 95.6205 43.5682 95.8777C43.4544 96.0233 43.3715 96.1907 43.3249 96.3695C43.2782 96.5483 43.2686 96.7348 43.2968 96.9175C43.4296 97.4063 43.7181 97.8385 44.1187 98.1485L41.8249 100.561C40.9756 99.8524 40.4164 98.8564 40.2537 97.7624C40.1135 96.7073 40.5137 95.5413 41.4541 94.2644C42.0374 93.3893 42.8716 92.711 43.8473 92.3185C44.3634 92.1053 44.9262 92.0306 45.48 92.1017C46.0338 92.1728 46.5595 92.3872 47.005 92.7237C47.4006 93.0171 47.7075 93.414 47.892 93.8706C48.1374 94.61 48.2563 95.3855 48.2437 96.1644C48.2305 96.6842 48.3108 97.2022 48.4807 97.6936C48.6576 98.0165 48.9126 98.2899 49.2224 98.4888ZM47.934 101.685L49.9831 98.9016L52.4375 100.71L50.3884 103.493L47.934 101.685Z" fill="#F7A955"/>
<path d="M89.9178 149.3C89.6022 149.3 89.2926 149.213 89.0229 149.05C88.7532 148.886 88.5337 148.651 88.3886 148.371C86.8594 145.404 84.9212 141.921 81.4499 138.152C81.25 137.936 81.1097 137.671 81.0427 137.384C80.9757 137.097 80.9843 136.798 81.0676 136.516C82.356 132.039 84.3821 125.918 84.4012 125.857C84.466 125.636 84.5746 125.43 84.7206 125.252C84.8666 125.074 85.0471 124.927 85.2511 124.82C85.4552 124.713 85.6787 124.648 85.9084 124.629C86.1381 124.61 86.3692 124.638 86.5879 124.71C86.8067 124.782 87.0087 124.898 87.1818 125.05C87.3548 125.202 87.4955 125.388 87.5954 125.596C87.6953 125.803 87.7524 126.029 87.7632 126.259C87.774 126.489 87.7384 126.719 87.6584 126.935C87.6393 126.993 85.8922 132.265 84.6268 136.55C87.3244 139.661 89.6138 143.104 91.4393 146.796C91.5734 147.058 91.638 147.35 91.627 147.644C91.6159 147.938 91.5295 148.225 91.376 148.476C91.2226 148.727 91.0072 148.935 90.7506 149.079C90.4939 149.223 90.2045 149.299 89.9101 149.3H89.9178Z" fill="#F7A955"/>
<path d="M92.7734 150.676H79.4734L86.5229 146.677L92.4294 146.906L92.7734 150.676Z" fill="#263238"/>
<path d="M91.5038 134.563C97.5574 132.671 101.193 127.069 99.6245 122.051C98.0559 117.033 91.8768 114.5 85.8232 116.392C79.7696 118.284 76.1338 123.886 77.7025 128.904C79.2711 133.922 85.4502 136.456 91.5038 134.563Z" fill="#263238"/>
<path d="M58.4012 119.236C58.0054 119.234 57.6222 119.096 57.3167 118.844C57.0112 118.593 56.802 118.243 56.7246 117.855C56.6473 117.467 56.7064 117.064 56.8922 116.714C57.0779 116.365 57.3787 116.09 57.7437 115.937C58.0407 115.813 58.3016 115.615 58.5021 115.363C58.7026 115.111 58.8362 114.813 58.8905 114.496C58.9248 114.122 59.0806 113.77 59.3341 113.494C59.5875 113.218 59.9246 113.033 60.2936 112.966C60.7193 112.879 61.1404 112.771 61.5551 112.641C63.8795 111.965 66.7582 111.112 75.8186 113.658C84.7566 108.662 84.8599 99.2878 84.8599 98.8826C84.8598 98.4283 85.0395 97.9924 85.3597 97.6701C85.6798 97.3478 86.1145 97.1653 86.5687 97.1622C87.0213 97.1622 87.4556 97.341 87.7771 97.6596C88.0986 97.9782 88.2812 98.4108 88.2852 98.8634C88.2852 99.3642 88.2317 111.131 76.8164 117.022C76.4273 117.224 75.9754 117.268 75.5548 117.145C66.9149 114.652 64.4682 115.363 62.53 115.933L62.0024 116.086C61.7474 116.761 61.3566 117.378 60.8543 117.896C60.352 118.415 59.7487 118.825 59.0817 119.102C58.8663 119.192 58.6348 119.238 58.4012 119.236Z" fill="#263238"/>
<path d="M78.445 106.96C75.1917 94.0312 66.5251 60.6798 94.2988 58.6421C119.217 56.8109 126.052 89.9903 127.715 101.459C128.548 107.262 129 113.114 129.069 118.976C129.1 121.941 128.096 124.825 126.228 127.128C124.36 129.431 121.746 131.01 118.838 131.592C105.263 134.352 92.4179 134.742 83.7627 131.328C82.626 130.869 81.6681 130.055 81.0321 129.007C80.3961 127.959 80.1162 126.733 80.2342 125.513C80.5668 121.813 80.5744 115.413 78.445 106.96Z" fill="#F7A955"/>
<path opacity="0.1" d="M127.731 101.467C126.163 90.6402 120.001 60.5612 98.4239 58.6498C97.193 58.525 95.9529 58.7674 94.8596 59.3463C93.7663 59.9253 92.8688 60.8149 92.2804 61.9031C91.317 63.7687 91.3476 66.0281 92.7888 68.2645C97.5293 75.6543 108.872 101.142 107.159 115.031C106.395 121.35 102.415 126.396 105.863 133.499C110.222 133.118 114.555 132.48 118.838 131.588C121.746 131.006 124.36 129.428 126.228 127.124C128.096 124.821 129.1 121.937 129.069 118.972C129.005 113.114 128.558 107.267 127.731 101.467Z" fill="black"/>
<path d="M123.999 119.156C123.954 119.156 123.911 119.138 123.879 119.107C123.847 119.075 123.828 119.032 123.827 118.987C123.762 113.133 123.311 107.289 122.478 101.494C118.349 72.9514 107.236 58.5198 90.3268 59.7661C90.3042 59.7676 90.2815 59.7647 90.26 59.7575C90.2385 59.7502 90.2187 59.7388 90.2017 59.7239C90.1846 59.709 90.1707 59.6909 90.1607 59.6705C90.1506 59.6502 90.1447 59.6281 90.1433 59.6055C90.1411 59.5601 90.1566 59.5156 90.1866 59.4814C90.2165 59.4472 90.2585 59.4259 90.3038 59.422C107.412 58.1604 118.659 72.6953 122.799 101.444C123.632 107.255 124.084 113.114 124.152 118.984C124.152 119.029 124.134 119.073 124.102 119.105C124.07 119.138 124.026 119.156 123.98 119.156H123.999Z" fill="#263238"/>
<path d="M123.74 135.474C129.793 133.581 133.429 127.98 131.861 122.962C130.292 117.944 124.113 115.41 118.059 117.303C112.006 119.195 108.37 124.797 109.939 129.815C111.507 134.833 117.686 137.366 123.74 135.474Z" fill="#263238"/>
<path d="M124.787 149.3C124.471 149.3 124.161 149.214 123.892 149.05C123.622 148.886 123.403 148.651 123.258 148.371C121.729 145.404 119.79 141.921 116.315 138.152C116.117 137.935 115.978 137.67 115.911 137.384C115.844 137.097 115.851 136.798 115.933 136.516C117.225 132.039 119.247 125.918 119.27 125.857C119.341 125.644 119.453 125.446 119.6 125.276C119.748 125.106 119.927 124.966 120.128 124.865C120.329 124.764 120.548 124.704 120.773 124.687C120.997 124.671 121.222 124.699 121.436 124.77C121.65 124.84 121.847 124.953 122.018 125.1C122.188 125.247 122.327 125.426 122.428 125.627C122.529 125.828 122.59 126.047 122.606 126.272C122.623 126.496 122.594 126.722 122.524 126.935C122.505 126.993 120.761 132.265 119.496 136.55C122.194 139.66 124.482 143.104 126.305 146.796C126.439 147.058 126.503 147.35 126.492 147.644C126.481 147.938 126.395 148.225 126.241 148.476C126.088 148.727 125.873 148.935 125.616 149.079C125.359 149.223 125.07 149.299 124.775 149.3H124.787Z" fill="#F7A955"/>
<path d="M121.186 97.0284C120.802 97.0286 120.43 96.9004 120.128 96.6643C119.825 96.4281 119.611 96.0976 119.519 95.7254C119.426 95.3533 119.461 94.9609 119.618 94.6109C119.774 94.2608 120.044 93.9733 120.383 93.7942C120.712 93.6183 128.178 89.5392 130.273 79.7372C125.303 77.6575 116.35 72.9591 114.392 70.5965C114.2 70.3681 114.068 70.0945 114.01 69.8013C113.784 68.3897 113.915 66.9438 114.392 65.5961L113.49 63.8528C113.281 63.4473 113.242 62.9753 113.381 62.5409C113.52 62.1064 113.826 61.745 114.232 61.5361C114.637 61.3272 115.109 61.288 115.544 61.4271C115.978 61.5662 116.34 61.8722 116.548 62.2778L117.844 64.7856C117.984 65.0481 118.052 65.3425 118.043 65.6395C118.034 65.9366 117.947 66.226 117.791 66.4792C117.441 67.1779 117.293 67.9603 117.363 68.7386C119.569 70.7303 128.449 75.444 132.819 77.0611C133.189 77.1984 133.501 77.4595 133.701 77.8002C133.901 78.1409 133.977 78.5402 133.916 78.9305C131.978 91.4584 122.394 96.6193 121.989 96.8334C121.741 96.963 121.465 97.0299 121.186 97.0284Z" fill="#263238"/>
<path d="M115.715 70.3595C115.561 70.3588 115.41 70.3166 115.277 70.2373C115.145 70.1581 115.036 70.0447 114.963 69.9091C114.889 69.7734 114.854 69.6205 114.86 69.4664C114.865 69.3123 114.913 69.1625 114.996 69.0329C115.057 68.9412 116.472 66.8041 118.628 66.2269C118.737 66.1977 118.85 66.1903 118.962 66.205C119.073 66.2197 119.181 66.2562 119.278 66.3125C119.376 66.3688 119.461 66.4437 119.53 66.5329C119.598 66.6222 119.648 66.7241 119.678 66.8328C119.707 66.9415 119.714 67.0549 119.699 67.1664C119.685 67.278 119.648 67.3856 119.592 67.483C119.536 67.5804 119.461 67.6659 119.371 67.7344C119.282 67.8028 119.18 67.8531 119.072 67.8822C117.569 68.2874 116.441 69.9542 116.434 69.9695C116.356 70.0893 116.249 70.1877 116.124 70.2558C115.998 70.3239 115.858 70.3596 115.715 70.3595Z" fill="#263238"/>
<path d="M127.643 150.676H114.343L121.392 146.677L127.299 146.906L127.643 150.676Z" fill="#263238"/>
<path d="M99.7915 99.4535C104.822 99.008 108.575 94.9762 108.174 90.4482C107.773 85.9202 103.37 82.6105 98.3396 83.056C93.3089 83.5014 89.5557 87.5332 89.9567 92.0613C90.3576 96.5893 94.7608 99.8989 99.7915 99.4535Z" fill="white"/>
<path d="M98.0828 96.4689C99.4169 96.0889 99.9376 93.812 99.2458 91.3835C98.554 88.9549 96.9117 87.2942 95.5776 87.6742C94.2435 88.0543 93.7228 90.3311 94.4146 92.7597C95.1064 95.1882 96.7487 96.8489 98.0828 96.4689Z" fill="#263238"/>
<path d="M88.6599 92.804C94.4326 92.0624 105.863 88.8014 107.748 87.4863C106.265 83.1434 99.3375 79.4275 93.1749 81.5225C87.5895 83.4072 88.6599 92.804 88.6599 92.804Z" fill="#263238"/>
<path d="M89.78 95.5948C96.9481 94.2338 106.265 91.9477 108.929 90.4835C108.765 95.1552 107.4 99.8918 100.091 101.494C94.1114 102.797 89.78 95.5948 89.78 95.5948Z" fill="#263238"/>
<path d="M83.8757 100.085C86.4676 98.3705 86.8093 94.3209 84.6389 91.0405C82.4684 87.7601 78.6077 86.491 76.0158 88.2059C73.4238 89.9208 73.0821 93.9704 75.2526 97.2508C77.423 100.531 81.2837 101.8 83.8757 100.085Z" fill="white"/>
<path d="M80.0736 94.2644C80.5056 96.3135 80.131 98.0224 79.2326 98.0874C78.3342 98.1523 77.2561 96.5352 76.8203 94.4861C76.3845 92.437 76.7629 90.732 77.6575 90.6632C78.5521 90.5944 79.6378 92.2153 80.0736 94.2644Z" fill="#263238"/>
<path d="M72.9666 93.4807C76.8393 93.9356 84.5311 93.4272 85.8079 92.7161C84.8637 89.0346 80.2838 84.8293 76.1206 85.3646C72.3664 85.8462 72.9666 93.4807 72.9666 93.4807Z" fill="#263238"/>
<path d="M73.6854 95.893C78.4985 96.1109 84.772 95.9886 86.5611 95.3119C86.3967 98.9857 85.4334 102.488 80.517 102.43C76.5029 102.384 73.6854 95.893 73.6854 95.893Z" fill="#263238"/>
<path d="M101.387 79.2096C97.012 79.2335 92.7335 77.9269 89.1187 75.4631C88.7562 75.1888 88.5176 74.7818 88.4552 74.3316C88.3928 73.8813 88.5118 73.4248 88.7861 73.0623C89.0604 72.6998 89.4674 72.4611 89.9176 72.3988C90.3679 72.3364 90.8245 72.4554 91.1869 72.7297C95.2328 75.3684 100.142 76.3422 104.888 75.4478C105.11 75.4059 105.337 75.4079 105.557 75.4538C105.777 75.4997 105.987 75.5886 106.173 75.7153C106.359 75.8421 106.518 76.0042 106.641 76.1925C106.765 76.3807 106.85 76.5915 106.892 76.8126C106.934 77.0338 106.931 77.261 106.886 77.4814C106.84 77.7017 106.751 77.9109 106.624 78.0969C106.497 78.2829 106.335 78.4421 106.147 78.5655C105.959 78.6888 105.748 78.7739 105.527 78.8158C104.162 79.0756 102.776 79.2074 101.387 79.2096Z" fill="#263238"/>
<path d="M70.7227 76.2545C70.4482 76.2531 70.178 76.186 69.9347 76.0589C69.6914 75.9318 69.4821 75.7484 69.3242 75.5238C69.1663 75.2993 69.0644 75.0403 69.027 74.7683C68.9896 74.4964 69.0179 74.2195 69.1094 73.9607C70.0154 71.4299 71.5255 69.7898 73.5899 69.0788C77.3287 67.7904 81.3581 70.2945 81.5302 70.4015C81.9057 70.6483 82.1695 71.0324 82.2649 71.4715C82.3603 71.9106 82.2798 72.3696 82.0405 72.7499C81.8013 73.1303 81.4225 73.4016 80.9854 73.5058C80.5483 73.6099 80.0878 73.5386 79.7028 73.307C78.9382 72.8215 76.503 71.6975 74.6947 72.3245C73.6549 72.6876 72.8826 73.6013 72.336 75.1229C72.2158 75.4543 71.9965 75.7408 71.7079 75.9432C71.4192 76.1457 71.0752 76.2544 70.7227 76.2545Z" fill="#263238"/>
<path d="M84.2367 105.187C84.1887 105.186 84.1409 105.179 84.0953 105.164C83.9655 105.127 83.8556 105.041 83.7896 104.923C83.7237 104.805 83.7071 104.666 83.7436 104.537C83.8955 104.123 84.1278 103.744 84.427 103.42C84.7261 103.097 85.0863 102.836 85.4868 102.652C87.4518 101.639 90.4567 101.849 94.3981 103.275C94.4619 103.298 94.5204 103.334 94.5704 103.379C94.6203 103.425 94.6607 103.48 94.6892 103.542C94.7176 103.603 94.7336 103.67 94.7361 103.738C94.7386 103.805 94.7277 103.873 94.704 103.936C94.6814 104 94.6463 104.059 94.6009 104.108C94.5554 104.158 94.5005 104.199 94.4393 104.227C94.3781 104.256 94.3118 104.272 94.2444 104.274C94.1769 104.277 94.1096 104.266 94.0464 104.242C89.5239 102.606 87.1651 102.958 86.0182 103.547C85.4456 103.789 84.9902 104.246 84.749 104.82C84.7161 104.929 84.6481 105.024 84.5554 105.09C84.4627 105.157 84.3507 105.191 84.2367 105.187Z" fill="#263238"/>
<path d="M68.0466 103.302C62.0647 103.833 56.2468 105.542 50.9274 108.329C53.8787 107.771 64.4415 120.842 67.1558 130.919C72.1677 129.065 78.0092 127.799 84.2368 126.809C80.4635 116.422 73.5631 104.651 68.0466 103.302Z" fill="#F7A955"/>
<path opacity="0.6" d="M68.0466 103.302C62.0647 103.833 56.2468 105.542 50.9274 108.329C53.8787 107.771 64.4415 120.842 67.1558 130.919C72.1677 129.065 78.0092 127.799 84.2368 126.809C80.4635 116.422 73.5631 104.651 68.0466 103.302Z" fill="white"/>
<path d="M68.0466 103.302C61.517 102.564 50.9159 108.031 50.9159 108.031C49.0388 109.227 49.5473 111.472 50.5718 112.423C51.5543 111.013 62.5109 107.343 66.6283 106.85C64.583 104.953 66.4868 103.562 68.0466 103.302Z" fill="#F7A955"/>
<path opacity="0.2" d="M68.0466 103.302C61.517 102.564 50.9159 108.031 50.9159 108.031C49.0388 109.227 49.5473 111.472 50.5718 112.423C51.5543 111.013 62.5109 107.343 66.6283 106.85C64.583 104.953 66.4868 103.562 68.0466 103.302Z" fill="white"/>
<path d="M58.4052 119.236C58.1206 119.237 57.8401 119.168 57.5886 119.034C57.3372 118.901 57.1226 118.708 56.9639 118.471C55.7215 116.56 56.4975 113.658 56.6657 113.092C56.809 112.673 57.1092 112.325 57.5033 112.122C57.8974 111.918 58.3549 111.875 58.7799 112.002C59.205 112.128 59.5645 112.414 59.7833 112.8C60.0021 113.186 60.0631 113.641 59.9535 114.071C59.6744 115.031 59.6171 116.258 59.8388 116.594C60.087 116.976 60.1736 117.44 60.0797 117.885C59.9858 118.33 59.719 118.72 59.338 118.968C59.0603 119.148 58.7357 119.241 58.4052 119.236Z" fill="#263238"/>
</svg>
