<svg width="21" height="21" viewBox="0 0 21 21" fill="none" xmlns="http://www.w3.org/2000/svg">
<path opacity="0.2" d="M11.4541 5.11426L4.55579 12.0126C4.49944 12.0692 4.45481 12.1364 4.42446 12.2103C4.39411 12.2842 4.37863 12.3633 4.37891 12.4432V16.4961H8.43177C8.51165 16.4964 8.59082 16.4809 8.66471 16.4505C8.73861 16.4202 8.8058 16.3756 8.86243 16.3192L15.7607 9.4209L11.4541 5.11426Z" fill="#B1308C"/>
<path d="M14.8379 2.3457L18.5293 6.03711" stroke="#B1308C" stroke-linecap="round" stroke-linejoin="round"/>
<path d="M10.5312 4.19141L16.6836 10.3438" stroke="#B1308C" stroke-linecap="round" stroke-linejoin="round"/>
<path d="M11.4541 5.11426L4.55579 12.0126C4.49944 12.0692 4.45481 12.1364 4.42446 12.2103C4.39411 12.2842 4.37863 12.3633 4.37891 12.4432V16.4961H8.43177C8.51166 16.4964 8.59081 16.4809 8.66471 16.4505C8.73861 16.4202 8.8058 16.3756 8.86243 16.3192L15.7607 9.4209" stroke="#B1308C" stroke-linecap="round" stroke-linejoin="round"/>
<path d="M8.53174 8.03662L10.5312 10.0361" stroke="#B1308C" stroke-linecap="round" stroke-linejoin="round"/>
<path d="M6.37842 10.1899L8.37793 12.1895" stroke="#B1308C" stroke-linecap="round" stroke-linejoin="round"/>
<path d="M13.6074 7.26758L16.6836 4.19141" stroke="#B1308C" stroke-linecap="round" stroke-linejoin="round"/>
<path d="M4.37891 16.4961L2.5332 18.3418" stroke="#B1308C" stroke-linecap="round" stroke-linejoin="round"/>
</svg>
