<svg width="8" height="5" viewBox="0 0 8 5" fill="none" xmlns="http://www.w3.org/2000/svg">
<path d="M7.88625 0.810987L4.28509 4.87005C4.20861 4.9534 4.10639 5 4 5C3.89361 5 3.79139 4.9534 3.71491 4.87005L0.113748 0.810987C0.0594665 0.745778 0.022674 0.664578 0.0076269 0.576783C-0.00742023 0.488988 -0.000107087 0.398185 0.0287204 0.314879C0.0593309 0.232796 0.110813 0.162761 0.176678 0.113602C0.242543 0.0644431 0.319844 0.0383592 0.39884 0.0386377H3.59987C3.59987 -0.0809767 3.64203 0.123218 3.71707 0.0386377C3.79211 -0.0459425 3.89388 0.0386377 4 0.0386377C4.10612 0.0386377 4.2079 -0.0459425 4.28293 0.0386377C4.35797 0.123218 4.40013 -0.0809767 4.40013 0.0386377H7.60116C7.68016 0.0383592 7.75746 0.0644431 7.82332 0.113602C7.88919 0.162761 7.94067 0.232796 7.97128 0.314879C8.00011 0.398185 8.00742 0.488988 7.99237 0.576783C7.97733 0.664578 7.94053 0.745778 7.88625 0.810987Z" fill="black"/>
</svg>
