<svg width="15" height="16" viewBox="0 0 15 16" fill="none" xmlns="http://www.w3.org/2000/svg">
  <path d="M9.37695 14.6211V10.9297C9.37695 10.7665 9.31213 10.61 9.19676 10.4947C9.08138 10.3793 8.92489 10.3145 8.76172 10.3145H6.30078C6.13761 10.3145 5.98112 10.3793 5.86574 10.4947C5.75037 10.61 5.68555 10.7665 5.68555 10.9297V14.6211C5.68555 14.7843 5.62073 14.9408 5.50535 15.0561C5.38997 15.1715 5.23348 15.2363 5.07031 15.2363H1.37891C1.21574 15.2363 1.05925 15.1715 0.94387 15.0561C0.828491 14.9408 0.763672 14.7843 0.763672 14.6211V7.50746C0.765049 7.42232 0.78345 7.33831 0.817789 7.26039C0.852129 7.18246 0.901713 7.1122 0.963623 7.05373L7.11597 1.46279C7.22938 1.35903 7.37753 1.30148 7.53125 1.30148C7.68497 1.30148 7.83312 1.35903 7.94653 1.46279L14.0989 7.05373C14.1608 7.1122 14.2104 7.18246 14.2447 7.26039C14.279 7.33831 14.2975 7.42232 14.2988 7.50746V14.6211C14.2988 14.7843 14.234 14.9408 14.1186 15.0561C14.0033 15.1715 13.8468 15.2363 13.6836 15.2363H9.99219C9.82902 15.2363 9.67253 15.1715 9.55715 15.0561C9.44177 14.9408 9.37695 14.7843 9.37695 14.6211Z" stroke="black" stroke-linecap="round" stroke-linejoin="round"/>
</svg>
