<svg width="12" height="12" viewBox="0 0 12 12" fill="none" xmlns="http://www.w3.org/2000/svg">
<path d="M7.85625 6.35625L5.23125 8.98125C5.13527 9.07299 5.00777 9.12444 4.875 9.125C4.81062 9.12517 4.74686 9.11242 4.6875 9.0875C4.59533 9.05022 4.51637 8.9863 4.4607 8.90392C4.40504 8.82153 4.3752 8.72443 4.375 8.625V6.5H0.5C0.367392 6.5 0.240215 6.44732 0.146447 6.35355C0.0526784 6.25979 0 6.13261 0 6C0 5.86739 0.0526784 5.74021 0.146447 5.64645C0.240215 5.55268 0.367392 5.5 0.5 5.5H4.375V3.375C4.3752 3.27557 4.40504 3.17847 4.4607 3.09608C4.51637 3.0137 4.59533 2.94978 4.6875 2.9125C4.77879 2.87624 4.87857 2.86698 4.97497 2.88582C5.07137 2.90465 5.16033 2.9508 5.23125 3.01875L7.85625 5.64375C7.95014 5.73855 8.00281 5.86658 8.00281 6C8.00281 6.13342 7.95014 6.26145 7.85625 6.35625ZM11 0H7.5C7.36739 0 7.24021 0.0526785 7.14645 0.146447C7.05268 0.240215 7 0.367392 7 0.5C7 0.632608 7.05268 0.759785 7.14645 0.853553C7.24021 0.947321 7.36739 1 7.5 1H11V11H7.5C7.36739 11 7.24021 11.0527 7.14645 11.1464C7.05268 11.2402 7 11.3674 7 11.5C7 11.6326 7.05268 11.7598 7.14645 11.8536C7.24021 11.9473 7.36739 12 7.5 12H11C11.2652 12 11.5196 11.8946 11.7071 11.7071C11.8946 11.5196 12 11.2652 12 11V1C12 0.734784 11.8946 0.48043 11.7071 0.292893C11.5196 0.105357 11.2652 0 11 0Z" fill="white"/>
</svg>
