<svg width="103" height="28" viewBox="0 0 103 28" fill="none" xmlns="http://www.w3.org/2000/svg">
<rect width="27.9342" height="28" rx="7" fill="#33A6E5"/>
<path fill-rule="evenodd" clip-rule="evenodd" d="M15.0337 5.09988C14.3519 4.41646 13.2464 4.41647 12.5646 5.09988L7.99771 9.67755L17.9435 19.6468L22.5104 15.0691C23.1922 14.3857 23.1922 13.2776 22.5104 12.5942L21.0779 11.1583C19.6665 12.1863 17.6797 12.0624 16.407 10.7867C15.1343 9.51093 15.0107 7.51952 16.0363 6.1048L15.0337 5.09988ZM17.2511 6.08505C17.1727 6.14798 17.0969 6.21587 17.0243 6.28872C16.9516 6.36156 16.8839 6.43749 16.8211 6.51607C15.9605 7.59307 16.0282 9.16957 17.0243 10.1679C18.0203 11.1663 19.5931 11.2342 20.6676 10.3716C20.746 10.3087 20.8217 10.2408 20.8944 10.1679C20.967 10.0951 21.0348 10.0192 21.0976 9.9406L23.1277 11.9755C24.1504 13.0006 24.1504 14.6627 23.1277 15.6878L17.9435 20.8842L6.76318 9.67755L11.9474 4.48116C12.9701 3.45604 14.6282 3.45604 15.651 4.48116L17.2511 6.08505Z" fill="white"/>
<path fill-rule="evenodd" clip-rule="evenodd" d="M5.08784 12.5942C4.40602 13.2776 4.40602 14.3857 5.08784 15.0691L6.09039 16.074C7.50179 15.046 9.48852 15.1699 10.7613 16.4456C12.034 17.7213 12.1576 19.7128 11.132 21.1275L12.5646 22.5634C13.2464 23.2468 14.3518 23.2468 15.0336 22.5634L17.2947 20.297L7.34892 10.3278L5.08784 12.5942ZM9.91718 21.1472C9.99558 21.0843 10.0713 21.0164 10.144 20.9435C10.2167 20.8707 10.2844 20.7948 10.3472 20.7162C11.2078 19.6392 11.14 18.0627 10.144 17.0643C9.14797 16.0659 7.57517 15.9981 6.5007 16.8606C6.4223 16.9236 6.34656 16.9915 6.27388 17.0643C6.20121 17.1372 6.13348 17.2131 6.07068 17.2917L4.47057 15.6878C3.44785 14.6627 3.44785 13.0006 4.47057 11.9755L7.34892 9.09036L18.5293 20.297L15.6509 23.1821C14.6282 24.2073 12.97 24.2073 11.9473 23.1821L9.91718 21.1472Z" fill="white"/>
<path d="M41.2454 19.1631H37.4907V8.98131H41.2404C42.2754 8.98131 43.1665 9.18514 43.9138 9.59281C44.6644 9.99717 45.2431 10.5805 45.6498 11.3428C46.0565 12.1018 46.2599 13.01 46.2599 14.0672C46.2599 15.1279 46.0565 16.0393 45.6498 16.8016C45.2464 17.5639 44.6694 18.1489 43.9188 18.5566C43.1682 18.9609 42.277 19.1631 41.2454 19.1631ZM39.9459 17.0651H41.1511C41.7199 17.0651 42.201 16.969 42.5945 16.7768C42.9913 16.5812 43.2905 16.2647 43.4922 15.8272C43.6972 15.3864 43.7997 14.7997 43.7997 14.0672C43.7997 13.3348 43.6972 12.7514 43.4922 12.3172C43.2872 11.8797 42.9847 11.5649 42.5846 11.3726C42.1878 11.1771 41.6984 11.0793 41.1164 11.0793H39.9459V17.0651Z" fill="#252525"/>
<path d="M57.2808 14.0722C57.2808 15.1925 57.0659 16.1421 56.636 16.9209C56.2061 17.6998 55.6242 18.2914 54.8901 18.6958C54.1593 19.1002 53.3393 19.3023 52.43 19.3023C51.5174 19.3023 50.6957 19.0985 49.9649 18.6908C49.2341 18.2832 48.6538 17.6915 48.224 16.916C47.7974 16.1371 47.5841 15.1892 47.5841 14.0722C47.5841 12.952 47.7974 12.0024 48.224 11.2235C48.6538 10.4446 49.2341 9.85299 49.9649 9.44864C50.6957 9.04428 51.5174 8.8421 52.43 8.8421C53.3393 8.8421 54.1593 9.04428 54.8901 9.44864C55.6242 9.85299 56.2061 10.4446 56.636 11.2235C57.0659 12.0024 57.2808 12.952 57.2808 14.0722ZM54.7711 14.0722C54.7711 13.4093 54.6768 12.8492 54.4883 12.3918C54.3032 11.9344 54.0353 11.5881 53.6848 11.3528C53.3377 11.1174 52.9194 10.9998 52.43 10.9998C51.9439 10.9998 51.5256 11.1174 51.1751 11.3528C50.8246 11.5881 50.5551 11.9344 50.3667 12.3918C50.1815 12.8492 50.0889 13.4093 50.0889 14.0722C50.0889 14.7351 50.1815 15.2952 50.3667 15.7526C50.5551 16.21 50.8246 16.5564 51.1751 16.7917C51.5256 17.027 51.9439 17.1447 52.43 17.1447C52.9194 17.1447 53.3377 17.027 53.6848 16.7917C54.0353 16.5564 54.3032 16.21 54.4883 15.7526C54.6768 15.2952 54.7711 14.7351 54.7711 14.0722Z" fill="#252525"/>
<path d="M67.9347 12.6702H65.4547C65.4217 12.415 65.3539 12.1847 65.2514 11.9792C65.1489 11.7737 65.0133 11.598 64.8447 11.4522C64.676 11.3064 64.476 11.1953 64.2445 11.1191C64.0163 11.0395 63.7634 10.9998 63.4856 10.9998C62.9929 10.9998 62.5681 11.1207 62.2109 11.3627C61.8571 11.6046 61.5843 11.9543 61.3926 12.4117C61.2041 12.8691 61.1098 13.4226 61.1098 14.0722C61.1098 14.7484 61.2057 15.3151 61.3975 15.7725C61.5926 16.2266 61.8654 16.5696 62.2159 16.8016C62.5697 17.0303 62.988 17.1447 63.4708 17.1447C63.7419 17.1447 63.9882 17.1099 64.2098 17.0403C64.4346 16.9707 64.6314 16.8696 64.8 16.737C64.972 16.6011 65.1125 16.437 65.2216 16.2448C65.334 16.0493 65.4117 15.8288 65.4547 15.5836L67.9347 15.5985C67.8917 16.0493 67.7611 16.4934 67.5428 16.9309C67.3279 17.3684 67.032 17.7678 66.655 18.129C66.2781 18.487 65.8184 18.772 65.2762 18.9841C64.7372 19.1963 64.1189 19.3023 63.4212 19.3023C62.5019 19.3023 61.6786 19.1002 60.9511 18.6958C60.227 18.2881 59.6549 17.6948 59.235 16.916C58.815 16.1371 58.6051 15.1892 58.6051 14.0722C58.6051 12.952 58.8184 12.0024 59.2449 11.2235C59.6715 10.4446 60.2485 9.85299 60.9759 9.44864C61.7034 9.04428 62.5185 8.8421 63.4212 8.8421C64.0362 8.8421 64.6049 8.92828 65.1274 9.10063C65.6498 9.26966 66.1094 9.51824 66.5062 9.84636C66.903 10.1712 67.2254 10.5706 67.4734 11.0445C67.7214 11.5185 67.8752 12.0604 67.9347 12.6702Z" fill="#252525"/>
<path d="M74.2152 13.1376V15.0069H69.5132V13.1376H74.2152Z" fill="#252525"/>
<path d="M75.9276 19.1631V8.98131H78.3827V13.2867H78.5167L81.8745 8.98131H84.7662L81.1653 13.5253L84.8306 19.1631H81.8944L79.3648 15.161L78.3827 16.4039V19.1631H75.9276Z" fill="#252525"/>
<path d="M85.7346 19.1631V8.98131H92.8173V10.9799H88.1897V13.068H92.4553V15.0715H88.1897V17.1645H92.8173V19.1631H85.7346Z" fill="#252525"/>
<path d="M103 8.98131V19.1631H100.917L96.8745 13.2867H96.8101V19.1631H94.3549V8.98131H96.4678L100.466 14.8478H100.55V8.98131H103Z" fill="#252525"/>
</svg>
