<svg width="90" height="24" viewBox="0 0 90 24" fill="none" xmlns="http://www.w3.org/2000/svg">
<rect x="0.77002" width="24.1997" height="24" rx="7" fill="#33A6E5"/>
<path fill-rule="evenodd" clip-rule="evenodd" d="M13.7939 4.37134C13.2032 3.78556 12.2455 3.78556 11.6549 4.37134L7.69851 8.29506L16.3147 16.8401L20.271 12.9164C20.8617 12.3306 20.8617 11.3809 20.271 10.7951L19.03 9.56425C17.8073 10.4454 16.0861 10.3392 14.9836 9.24573C13.881 8.15224 13.7739 6.44532 14.6624 5.2327L13.7939 4.37134ZM15.7148 5.21577C15.6469 5.26972 15.5813 5.32791 15.5183 5.39035C15.4553 5.45278 15.3967 5.51786 15.3423 5.58522C14.5968 6.50836 14.6554 7.85965 15.5183 8.7154C16.3812 9.57115 17.7437 9.62934 18.6745 8.88997C18.7424 8.83603 18.8081 8.77784 18.871 8.7154C18.934 8.65296 18.9927 8.58788 19.0471 8.52053L20.8058 10.2647C21.6918 11.1434 21.6918 12.568 20.8058 13.4467L16.3147 17.9008L6.62903 8.29506L11.1201 3.84101C12.0061 2.96233 13.4426 2.96233 14.3286 3.84101L15.7148 5.21577Z" fill="white"/>
<path fill-rule="evenodd" clip-rule="evenodd" d="M5.17767 10.795C4.58701 11.3808 4.58701 12.3306 5.17767 12.9164L6.04619 13.7777C7.2689 12.8966 8.99003 13.0028 10.0926 14.0962C11.1952 15.1897 11.3023 16.8967 10.4138 18.1093L11.6548 19.3401C12.2455 19.9259 13.2032 19.9259 13.7938 19.3401L15.7526 17.3974L7.13647 8.85241L5.17767 10.795ZM9.36138 18.1262C9.4293 18.0723 9.49492 18.0141 9.55788 17.9516C9.62083 17.8892 9.67951 17.8241 9.73391 17.7567C10.4794 16.8336 10.4207 15.4823 9.55787 14.6266C8.69501 13.7708 7.33247 13.7126 6.40165 14.452C6.33373 14.5059 6.26811 14.5641 6.20515 14.6266C6.1422 14.689 6.08352 14.7541 6.02912 14.8214L4.64293 13.4467C3.75694 12.568 3.75693 11.1434 4.64293 10.2647L7.13647 7.79175L16.8221 17.3974L14.3286 19.8704C13.4426 20.7491 12.0061 20.7491 11.1201 19.8704L9.36138 18.1262Z" fill="white"/>
<path d="M36.5014 16.4255H33.2487V7.69827H36.4971C37.3937 7.69827 38.1657 7.87298 38.813 8.22242C39.4633 8.56901 39.9646 9.06901 40.3169 9.72242C40.6693 10.373 40.8454 11.1514 40.8454 12.0576C40.8454 12.9667 40.6693 13.748 40.3169 14.4014C39.9675 15.0548 39.4676 15.5562 38.8173 15.9057C38.1671 16.2522 37.3951 16.4255 36.5014 16.4255ZM35.3756 14.6272H36.4197C36.9124 14.6272 37.3292 14.5449 37.6701 14.3801C38.0138 14.2125 38.2731 13.9412 38.4478 13.5662C38.6254 13.1883 38.7142 12.6855 38.7142 12.0576C38.7142 11.4298 38.6254 10.9298 38.4478 10.5576C38.2702 10.1826 38.0081 9.91276 37.6615 9.74798C37.3177 9.58037 36.8938 9.49656 36.3896 9.49656H35.3756V14.6272Z" fill="#252525"/>
<path d="M50.393 12.0619C50.393 13.0221 50.2068 13.8361 49.8344 14.5037C49.462 15.1713 48.9578 15.6784 48.3219 16.025C47.6889 16.3716 46.9784 16.5449 46.1907 16.5449C45.4001 16.5449 44.6882 16.3701 44.0552 16.0207C43.4221 15.6713 42.9194 15.1642 42.547 14.4994C42.1775 13.8318 41.9927 13.0193 41.9927 12.0619C41.9927 11.1017 42.1775 10.2878 42.547 9.62014C42.9194 8.95253 43.4221 8.44543 44.0552 8.09884C44.6882 7.75224 45.4001 7.57895 46.1907 7.57895C46.9784 7.57895 47.6889 7.75224 48.3219 8.09884C48.9578 8.44543 49.462 8.95253 49.8344 9.62014C50.2068 10.2878 50.393 11.1017 50.393 12.0619ZM48.2188 12.0619C48.2188 11.4937 48.1372 11.0136 47.9739 10.6216C47.8135 10.2295 47.5814 9.93264 47.2778 9.73094C46.977 9.52923 46.6146 9.42838 46.1907 9.42838C45.7696 9.42838 45.4072 9.52923 45.1036 9.73094C44.8 9.93264 44.5665 10.2295 44.4032 10.6216C44.2428 11.0136 44.1626 11.4937 44.1626 12.0619C44.1626 12.6301 44.2428 13.1102 44.4032 13.5022C44.5665 13.8943 44.8 14.1912 45.1036 14.3929C45.4072 14.5946 45.7696 14.6954 46.1907 14.6954C46.6146 14.6954 46.977 14.5946 47.2778 14.3929C47.5814 14.1912 47.8135 13.8943 47.9739 13.5022C48.1372 13.1102 48.2188 12.6301 48.2188 12.0619Z" fill="#252525"/>
<path d="M59.6226 10.8602H57.4742C57.4455 10.6414 57.3868 10.444 57.298 10.2679C57.2092 10.0917 57.0917 9.94117 56.9456 9.81617C56.7996 9.69117 56.6262 9.59599 56.4257 9.53065C56.2281 9.46247 56.0089 9.42838 55.7683 9.42838C55.3415 9.42838 54.9734 9.53207 54.664 9.73946C54.3575 9.94685 54.1212 10.2466 53.9551 10.6386C53.7918 11.0307 53.7101 11.5051 53.7101 12.0619C53.7101 12.6414 53.7932 13.1272 53.9594 13.5193C54.1284 13.9085 54.3647 14.2025 54.6683 14.4014C54.9748 14.5974 55.3372 14.6954 55.7554 14.6954C55.9903 14.6954 56.2037 14.6656 56.3957 14.6059C56.5904 14.5463 56.7609 14.4596 56.907 14.346C57.0559 14.2295 57.1777 14.0889 57.2722 13.9241C57.3696 13.7565 57.4369 13.5676 57.4742 13.3574L59.6226 13.3701C59.5853 13.7565 59.4722 14.1372 59.2831 14.5122C59.0969 14.8872 58.8405 15.2295 58.514 15.5392C58.1874 15.846 57.7893 16.0903 57.3195 16.2721C56.8525 16.4539 56.3169 16.5449 55.7125 16.5449C54.9161 16.5449 54.2028 16.3716 53.5726 16.025C52.9453 15.6755 52.4497 15.167 52.0859 14.4994C51.7221 13.8318 51.5402 13.0193 51.5402 12.0619C51.5402 11.1017 51.725 10.2878 52.0945 9.62014C52.4641 8.95253 52.9639 8.44543 53.5941 8.09884C54.2243 7.75224 54.9304 7.57895 55.7125 7.57895C56.2453 7.57895 56.738 7.65281 57.1906 7.80054C57.6432 7.94543 58.0413 8.15849 58.3851 8.43974C58.7288 8.71815 59.0081 9.06048 59.223 9.46673C59.4378 9.87298 59.571 10.3375 59.6226 10.8602Z" fill="#252525"/>
<path d="M65.0634 11.2608V12.863H60.99V11.2608H65.0634Z" fill="#252525"/>
<path d="M66.5469 16.4255V7.69827H68.6738V11.3886H68.7898L71.6988 7.69827H74.2038L71.0843 11.5932L74.2597 16.4255H71.716L69.5246 12.9951L68.6738 14.0605V16.4255H66.5469Z" fill="#252525"/>
<path d="M75.0428 16.4255V7.69827H81.1787V9.41134H77.1697V11.2011H80.865V12.9184H77.1697V14.7125H81.1787V16.4255H75.0428Z" fill="#252525"/>
<path d="M90 7.69827V16.4255H88.1954L84.6935 11.3886H84.6376V16.4255H82.5107V7.69827H84.3411L87.8044 12.7267H87.8774V7.69827H90Z" fill="#252525"/>
</svg>
