<svg width="21" height="21" viewBox="0 0 21 21" fill="none" xmlns="http://www.w3.org/2000/svg">
<path opacity="0.2" d="M14.0475 18.5173C15.4581 18.5173 16.6016 17.3738 16.6016 15.9632C16.6016 14.5526 15.4581 13.4091 14.0475 13.4091C12.6369 13.4091 11.4934 14.5526 11.4934 15.9632C11.4934 17.3738 12.6369 18.5173 14.0475 18.5173Z" fill="black"/>
<path opacity="0.2" d="M14.0475 7.0238C15.4581 7.0238 16.6016 5.88029 16.6016 4.4697C16.6016 3.0591 15.4581 1.91559 14.0475 1.91559C12.6369 1.91559 11.4934 3.0591 11.4934 4.4697C11.4934 5.88029 12.6369 7.0238 14.0475 7.0238Z" fill="black"/>
<path d="M5.10818 12.7705C6.51878 12.7705 7.66229 11.627 7.66229 10.2164C7.66229 8.80584 6.51878 7.66232 5.10818 7.66232C3.69759 7.66232 2.55408 8.80584 2.55408 10.2164C2.55408 11.627 3.69759 12.7705 5.10818 12.7705Z" stroke="black" stroke-width="2" stroke-linecap="round" stroke-linejoin="round"/>
<path d="M14.0475 18.5173C15.4581 18.5173 16.6016 17.3738 16.6016 15.9632C16.6016 14.5526 15.4581 13.4091 14.0475 13.4091C12.6369 13.4091 11.4934 14.5526 11.4934 15.9632C11.4934 17.3738 12.6369 18.5173 14.0475 18.5173Z" stroke="black" stroke-width="2" stroke-linecap="round" stroke-linejoin="round"/>
<path d="M14.0475 7.0238C15.4581 7.0238 16.6016 5.88029 16.6016 4.4697C16.6016 3.0591 15.4581 1.91559 14.0475 1.91559C12.6369 1.91559 11.4934 3.0591 11.4934 4.4697C11.4934 5.88029 12.6369 7.0238 14.0475 7.0238Z" stroke="black" stroke-width="2" stroke-linecap="round" stroke-linejoin="round"/>
<path fill-rule="evenodd" clip-rule="evenodd" d="M12.5615 5.42563C12.7962 5.79077 12.6904 6.27699 12.3252 6.51163L7.67995 9.49674C7.31481 9.73138 6.82859 9.62559 6.59395 9.26046C6.35931 8.89532 6.4651 8.4091 6.83024 8.17446L11.4755 5.18935C11.8407 4.95471 12.3269 5.0605 12.5615 5.42563Z" fill="black"/>
<path fill-rule="evenodd" clip-rule="evenodd" d="M6.59395 11.1724C6.82859 10.8072 7.31481 10.7015 7.67995 10.9361L12.3252 13.9212C12.6904 14.1559 12.7962 14.6421 12.5615 15.0072C12.3269 15.3723 11.8407 15.4781 11.4755 15.2435L6.83024 12.2584C6.4651 12.0237 6.35931 11.5375 6.59395 11.1724Z" fill="black"/>
</svg>
