<svg width="27" height="27" viewBox="0 0 27 27" fill="none" xmlns="http://www.w3.org/2000/svg">
<path d="M10.7551 1.65464H15.719C15.9384 1.65464 16.1488 1.56748 16.304 1.41232C16.4591 1.25717 16.5463 1.04674 16.5463 0.82732C16.5463 0.607901 16.4591 0.397469 16.304 0.242316C16.1488 0.0871638 15.9384 0 15.719 0L10.7551 0C10.5356 0 10.3252 0.0871638 10.1701 0.242316C10.0149 0.397469 9.92773 0.607901 9.92773 0.82732C9.92773 1.04674 10.0149 1.25717 10.1701 1.41232C10.3252 1.56748 10.5356 1.65464 10.7551 1.65464V1.65464Z" fill="#F7A955"/>
<path d="M13.237 3.30927C11.2735 3.30927 9.35406 3.89152 7.72143 4.98241C6.08881 6.07329 4.81633 7.62381 4.06492 9.43788C3.31351 11.252 3.1169 13.2481 3.49997 15.1739C3.88304 17.0997 4.82857 18.8687 6.217 20.2571C7.60544 21.6456 9.37441 22.5911 11.3002 22.9742C13.226 23.3572 15.2222 23.1606 17.0363 22.4092C18.8503 21.6578 20.4009 20.3853 21.4917 18.7527C22.5826 17.1201 23.1649 15.2006 23.1649 13.2371C23.1594 10.6058 22.1117 8.08374 20.251 6.2231C18.3904 4.36245 15.8684 3.31473 13.237 3.30927V3.30927ZM17.9217 9.73133L13.8265 13.8266C13.6684 13.9795 13.457 14.0649 13.237 14.0649C13.0171 14.0649 12.8057 13.9795 12.6476 13.8266C12.4922 13.6697 12.4051 13.4579 12.4051 13.2371C12.4051 13.0163 12.4922 12.8045 12.6476 12.6476L16.7428 8.5524C16.817 8.46202 16.9093 8.38817 17.0137 8.3356C17.1182 8.28303 17.2324 8.25291 17.3492 8.24717C17.466 8.24144 17.5827 8.26022 17.6918 8.3023C17.8009 8.34438 17.9 8.40883 17.9826 8.49151C18.0653 8.57419 18.1298 8.67326 18.1718 8.78235C18.2139 8.89144 18.2327 9.00813 18.227 9.12492C18.2212 9.2417 18.1911 9.35599 18.1385 9.46043C18.086 9.56488 18.0121 9.65715 17.9217 9.73133V9.73133Z" fill="#F7A955"/>
</svg>
