<svg width="345" height="367" viewBox="0 0 345 367" fill="none" xmlns="http://www.w3.org/2000/svg">
<g filter="url(#filter0_d_266_456)">
<path d="M310.68 23.8504C307.989 23.8504 305.835 21.6947 305.835 19C304.661 19 303.486 19 302.361 19C302.361 21.6947 300.207 23.8504 297.516 23.8504C294.824 23.8504 292.671 21.6947 292.671 19C291.496 19 290.322 19 289.196 19C289.196 21.6947 287.043 23.8504 284.351 23.8504C281.659 23.8504 279.506 21.6947 279.506 19C278.331 19 277.157 19 276.031 19C276.031 21.6947 273.878 23.8504 271.186 23.8504C268.495 23.8504 266.341 21.6947 266.341 19C265.167 19 263.992 19 262.867 19C262.867 21.6947 260.713 23.8504 258.022 23.8504C255.33 23.8504 253.177 21.6947 253.177 19C252.002 19 250.827 19 249.702 19C249.702 21.6947 247.549 23.8504 244.857 23.8504C242.165 23.8504 240.012 21.6947 240.012 19C238.837 19 237.663 19 236.537 19C236.537 21.6947 234.384 23.8504 231.692 23.8504C229.001 23.8504 226.847 21.6947 226.847 19C225.673 19 224.498 19 223.373 19C223.373 21.6947 221.219 23.8504 218.527 23.8504C215.836 23.8504 213.682 21.6947 213.682 19C212.508 19 211.333 19 210.208 19C210.208 21.6947 208.054 23.8504 205.363 23.8504C202.671 23.8504 200.518 21.6947 200.518 19C199.343 19 198.169 19 197.043 19C197.043 21.6947 194.89 23.8504 192.198 23.8504C189.506 23.8504 187.353 21.6947 187.353 19C186.179 19 185.004 19 183.878 19C183.878 21.6947 181.725 23.8504 179.033 23.8504C176.342 23.8504 174.188 21.6947 174.188 19C173.014 19 171.839 19 170.714 19C170.714 21.6947 168.56 23.8504 165.869 23.8504C163.177 23.8504 161.024 21.6947 161.024 19C159.849 19 158.675 19 157.549 19C157.549 21.6947 155.396 23.8504 152.704 23.8504C150.012 23.8504 147.859 21.6947 147.859 19C146.684 19 145.51 19 144.384 19C144.384 21.6947 142.231 23.8504 139.539 23.8504C136.848 23.8504 134.694 21.6947 134.694 19C133.52 19 132.345 19 131.22 19C131.22 21.6947 129.066 23.8504 126.375 23.8504C123.683 23.8504 121.53 21.6947 121.53 19C120.355 19 119.181 19 118.055 19C118.055 21.6947 115.902 23.8504 113.21 23.8504C110.518 23.8504 108.365 21.6947 108.365 19C107.19 19 106.016 19 104.89 19C104.89 21.6947 102.737 23.8504 100.045 23.8504C97.3536 23.8504 95.2003 21.6947 95.2003 19C94.0257 19 92.8512 19 91.7256 19C91.7256 21.6947 89.5722 23.8504 86.8806 23.8504C84.1889 23.8504 82.0356 21.6947 82.0356 19C80.861 19 79.6865 19 78.5609 19C78.5609 21.6947 76.4076 23.8504 73.7159 23.8504C71.0242 23.8504 68.9198 21.6947 68.9198 19C67.7453 19 66.5707 19 65.3962 19C65.3962 21.6947 63.2429 23.8504 60.5512 23.8504C57.8595 23.8504 55.7551 21.6947 55.7551 19C54.5806 19 53.406 19 52.2804 19C52.2804 21.6947 50.1271 23.8504 47.4354 23.8504C44.7438 23.8504 42.5904 21.6947 42.5904 19C41.4159 19 40.2414 19 39.1158 19C39.1158 21.6947 36.9624 23.8504 34.2708 23.8504C31.5791 23.8504 29.4258 21.6947 29.4258 19C28.3002 19 27.1256 19 26 19C26 38.2548 26 310.866 26 333.746C27.1256 333.746 28.3002 333.746 29.4258 333.746C29.4258 331.051 31.5791 328.896 34.2708 328.896C36.9624 328.896 39.1158 331.051 39.1158 333.746C40.2903 333.746 41.4648 333.746 42.5904 333.746C42.5904 331.051 44.7438 328.896 47.4354 328.896C50.1271 328.896 52.2804 331.051 52.2804 333.746C53.455 333.746 54.6295 333.746 55.7551 333.746C55.7551 331.051 57.9085 328.896 60.6001 328.896C63.2918 328.896 65.4451 331.051 65.4451 333.746C66.6197 333.746 67.7942 333.746 68.9198 333.746C68.9198 331.051 71.0732 328.896 73.7648 328.896C76.4565 328.896 78.6098 331.051 78.6098 333.746C79.7844 333.746 80.9589 333.746 82.0845 333.746C82.0845 331.051 84.2379 328.896 86.9295 328.896C89.6212 328.896 91.7745 331.051 91.7745 333.746C92.9491 333.746 94.1236 333.746 95.2492 333.746C95.2492 331.051 97.4025 328.896 100.094 328.896C102.786 328.896 104.939 331.051 104.939 333.746C106.114 333.746 107.288 333.746 108.414 333.746C108.414 331.051 110.567 328.896 113.259 328.896C115.951 328.896 118.104 331.051 118.104 333.746C119.278 333.746 120.453 333.746 121.579 333.746C121.579 331.051 123.732 328.896 126.424 328.896C129.115 328.896 131.269 331.051 131.269 333.746C132.443 333.746 133.618 333.746 134.743 333.746C134.743 331.051 136.897 328.896 139.588 328.896C142.28 328.896 144.433 331.051 144.433 333.746C145.608 333.746 146.782 333.746 147.908 333.746C147.908 331.051 150.061 328.896 152.753 328.896C155.445 328.896 157.598 331.051 157.598 333.746C158.773 333.746 159.947 333.746 161.073 333.746C161.073 331.051 163.226 328.896 165.918 328.896C168.609 328.896 170.763 331.051 170.763 333.746C171.937 333.746 173.112 333.746 174.237 333.746C174.237 331.051 176.391 328.896 179.082 328.896C181.774 328.896 183.927 331.051 183.927 333.746C185.102 333.746 186.276 333.746 187.402 333.746C187.402 331.051 189.555 328.896 192.247 328.896C194.939 328.896 197.092 331.051 197.092 333.746C198.267 333.746 199.441 333.746 200.567 333.746C200.567 331.051 202.72 328.896 205.412 328.896C208.103 328.896 210.257 331.051 210.257 333.746C211.431 333.746 212.606 333.746 213.731 333.746C213.731 331.051 215.885 328.896 218.576 328.896C221.268 328.896 223.421 331.051 223.421 333.746C224.596 333.746 225.771 333.746 226.896 333.746C226.896 331.051 229.049 328.896 231.741 328.896C234.433 328.896 236.586 331.051 236.586 333.746C237.761 333.746 238.935 333.746 240.061 333.746C240.061 331.051 242.214 328.896 244.906 328.896C247.597 328.896 249.751 331.051 249.751 333.746C250.925 333.746 252.1 333.746 253.225 333.746C253.225 331.051 255.379 328.896 258.07 328.896C260.762 328.896 262.916 331.051 262.916 333.746C264.09 333.746 265.265 333.746 266.39 333.746C266.39 331.051 268.544 328.896 271.235 328.896C273.927 328.896 276.08 331.051 276.08 333.746C277.255 333.746 278.429 333.746 279.555 333.746C279.555 331.051 281.708 328.896 284.4 328.896C287.092 328.896 289.245 331.051 289.245 333.746C290.419 333.746 291.594 333.746 292.72 333.746C292.72 331.051 294.873 328.896 297.565 328.896C300.256 328.896 302.41 331.051 302.41 333.746C303.584 333.746 304.759 333.746 305.884 333.746C305.884 331.051 308.038 328.896 310.729 328.896C313.421 328.896 315.574 331.051 315.574 333.746C316.7 333.746 317.874 333.746 319 333.746C319 310.866 319 38.2548 319 19C317.874 19 316.7 19 315.574 19C315.525 21.6947 313.372 23.8504 310.68 23.8504Z" fill="url(#paint0_linear_266_456)"/>
</g>
<defs>
<filter id="filter0_d_266_456" x="0" y="0" width="345" height="366.746" filterUnits="userSpaceOnUse" color-interpolation-filters="sRGB">
<feFlood flood-opacity="0" result="BackgroundImageFix"/>
<feColorMatrix in="SourceAlpha" type="matrix" values="0 0 0 0 0 0 0 0 0 0 0 0 0 0 0 0 0 0 127 0" result="hardAlpha"/>
<feOffset dy="7"/>
<feGaussianBlur stdDeviation="13"/>
<feComposite in2="hardAlpha" operator="out"/>
<feColorMatrix type="matrix" values="0 0 0 0 0 0 0 0 0 0 0 0 0 0 0 0 0 0 0.15 0"/>
<feBlend mode="normal" in2="BackgroundImageFix" result="effect1_dropShadow_266_456"/>
<feBlend mode="normal" in="SourceGraphic" in2="effect1_dropShadow_266_456" result="shape"/>
</filter>
<linearGradient id="paint0_linear_266_456" x1="30.6311" y1="19.7842" x2="256.736" y2="409.199" gradientUnits="userSpaceOnUse">
<stop offset="0.5135" stop-color="white"/>
<stop offset="1" stop-color="#F2F2F2"/>
</linearGradient>
</defs>
</svg>
