<svg width="27" height="27" viewBox="0 0 27 27" fill="none" xmlns="http://www.w3.org/2000/svg">
<path d="M14.3438 22.7812H9.28125C7.93859 22.7812 6.65092 22.2479 5.70152 21.2985C4.75212 20.3491 4.21875 19.0614 4.21875 17.7188V9.28125C4.21875 7.93859 4.75212 6.65092 5.70152 5.70152C6.65092 4.75212 7.93859 4.21875 9.28125 4.21875H17.7188C19.0614 4.21875 20.3491 4.75212 21.2985 5.70152C22.2479 6.65092 22.7812 7.93859 22.7812 9.28125V14.3438C21.9375 16.875 16.875 21.9375 14.3438 22.7812Z" stroke="white" stroke-width="2" stroke-linecap="round" stroke-linejoin="round"/>
<path d="M14.3438 22.7812V19.4062C14.3438 18.0636 14.8771 16.7759 15.8265 15.8265C16.7759 14.8771 18.0636 14.3438 19.4062 14.3438H22.7812" stroke="white" stroke-width="2" stroke-linecap="round" stroke-linejoin="round"/>
</svg>
