<svg width="21" height="21" viewBox="0 0 21 21" fill="none" xmlns="http://www.w3.org/2000/svg">
<path d="M10.5313 1.96875C8.84393 1.96875 7.1945 2.4691 5.79155 3.40652C4.38859 4.34395 3.29512 5.67635 2.64941 7.23523C2.0037 8.79411 1.83475 10.5095 2.16393 12.1644C2.49311 13.8193 3.30563 15.3394 4.49875 16.5325C5.69187 17.7256 7.21199 18.5381 8.86689 18.8673C10.5218 19.1965 12.2371 19.0276 13.796 18.3818C15.3549 17.7361 16.6873 16.6427 17.6247 15.2397C18.5622 13.8368 19.0625 12.1873 19.0625 10.5C19.0582 8.2387 18.1579 6.07127 16.559 4.47229C14.96 2.8733 12.7925 1.97309 10.5313 1.96875Z" fill="#6BBC3A"/>
<path d="M14 8L9.33068 13L7 10.5" stroke="white" stroke-width="2" stroke-linecap="round" stroke-linejoin="round"/>
</svg>
